<?xml version="1.0" encoding="utf-8"?>
<!-- Generator: Adobe Illustrator 21.1.0, SVG Export Plug-In . SVG Version: 6.00 Build 0)  -->
<svg version="1.1" id="Calque_1" xmlns="http://www.w3.org/2000/svg" xmlns:xlink="http://www.w3.org/1999/xlink" x="0px" y="0px"
	 viewBox="0 0 566.9 566.9" style="enable-background:new 0 0 566.9 566.9;" xml:space="preserve">
<style type="text/css">
	.st0{fill:#009640;}
</style>
<g>
	<path class="st0" d="M32.3,10.5c3.4,0,6.3,0,9.1,0c86.1,0,172.3-0.2,258.4,0.1c30.4,0.1,60.3,4.5,89.2,14.3
		c33.4,11.3,61.1,31,84.5,57c0.5,0.5,1,1.1,1.4,1.7c9.5,13.6,9.5,13.6-2.4,25.5c-42.4,42.4-84.8,84.7-127,127.2
		c-3.8,3.8-6.2,4.9-10.4,0.5c-9.1-9.5-9.3-9.2-21.4-3.4c-21.5,10.4-42.9,20.8-64.5,30.9c-25.1,11.8-50.4,23.3-75.2,34.8
		c9.9,9.9,19.6,19.6,29.7,29.7c32.5-15.2,66-30.8,99.5-46.5c0.5,0.7,0.9,1.3,1.4,2c-11.5,22.3-23,44.7-34.9,67.8
		c-8.1-8.6-15.5-16.4-22.4-23.6c-8.1,8.2-15.7,15.7-23.5,23.5c0.1,0.1,1.3,1.5,1.2,1.4C160.6,417.8,96.2,482.1,32.3,546.1
		C32.3,368.7,32.3,190.1,32.3,10.5z"/>
	<path class="st0" d="M234.2,364c15.6,15.6,32.4,32.4,49.6,49.7c25.4-51.7,50.4-102.7,75.6-154.3c-4.3-3.8-8.7-7.6-13-11.5
		c0.8,0.5,1.7,1.1,2.5,1.6c46.4-48.3,92.7-96.6,140.4-146.3c4.5,7.4,8.2,12.7,11.1,18.5c14.4,27.8,23,57.4,28.4,88.3
		c6.1,34.4,6.6,69,5.3,103.5c-1.6,43.9-8.4,86.9-29.7,126.4c-14.3,26.5-32.5,49.6-56.6,68.4c-26.9,21-56.9,33.1-90.2,39.6
		c-31.5,6.2-63,8.6-95,8.5c-71.5-0.3-142.9-0.1-214.4-0.1c-2.6,0-5.3,0-6.4,0C105.3,492.8,169.5,428.7,234.2,364z"/>
</g>
</svg>
